<svg xmlns="http://www.w3.org/2000/svg" viewBox="0 0 402 874" width="402" height="874" role="img" aria-label="Indigo Pocket portrait light field-case artwork">
  <defs>
    <pattern id="shell-speckle" width="13" height="13" patternUnits="userSpaceOnUse">
      <circle cx="2.5" cy="3" r="0.52" fill="#FFF1D0" fill-opacity="0.022"/>
      <circle cx="9" cy="10" r="0.45" fill="#0D0C20" fill-opacity="0.026"/>
    </pattern>
  </defs>
  <g id="canvas">
    <rect width="402" height="874" fill="#E9E2D3"/>
    <path d="M386 0 V874" fill="none" stroke="#D8D0C0" stroke-width="1" opacity="0.46"/>
  </g>
  <g id="shell-shadow" transform="translate(3 6)">
    <path d="M38 12 H364 L396 44 V328 L382 348 V526 L396 546 V830 L366 862 H38 L6 830 V546 L20 526 V348 L6 328 V44 Z" fill="#171527" opacity="0.22"/>
  </g>
  <g id="shell">
    <path d="M38 12 H364 L396 44 V328 L382 348 V526 L396 546 V830 L366 862 H38 L6 830 V546 L20 526 V348 L6 328 V44 Z" fill="#292752"/>
    <path d="M38 12 H364 L396 44 V328 L382 348 V526 L396 546 V830 L366 862 H38 L6 830 V546 L20 526 V348 L6 328 V44 Z" fill="url(#shell-speckle)"/>
    <path d="M38 12 H364 L396 44 V328 L382 348 V526 L396 546 V830 L366 862 H38 L6 830 V546 L20 526 V348 L6 328 V44 Z" fill="none" stroke="#5D5988" stroke-width="1.5"/>
    <path d="M38 14 H363 M8 45 V326 M22 350 V524 M8 548 V828" fill="none" stroke="#77739A" stroke-width="1.35" stroke-linecap="round" opacity="0.76"/>
    <path d="M394 46 V327 L380 347 V527 L394 547 V829 L365 860 H39" fill="none" stroke="#14132D" stroke-width="1.6" stroke-linecap="round" opacity="0.88"/>
  </g>
  <g id="shoulder-spine">
    <path d="M18 139 H104 L116 151 V723 L104 735 H18 Z" fill="#242249"/>
    <path d="M20 141 H103 L114 152 V721" fill="none" stroke="#4F4B79" stroke-width="1.3"/>
    <path d="M114 153 V721 L103 733 H20" fill="none" stroke="#14132D" stroke-width="1.5"/>
    <path d="M31 219 V655" fill="none" stroke="#35335A" stroke-width="1" opacity="0.56"/>
  </g>
  <g id="upper-action-deck">
    <path d="M150 25 H310 L336 51 V226 L310 254 H150 L126 230 V49 Z" fill="#471B38"/>
    <path d="M151 27 H309 L333 52" fill="none" stroke="#79415F" stroke-width="1.4" stroke-linecap="round"/>
    <path d="M334 55 V225 L309 251 H151" fill="none" stroke="#2D1024" stroke-width="2" stroke-linecap="round"/>
    <path d="M319 72 V208" fill="none" stroke="#612848" stroke-width="1" opacity="0.72"/>
  </g>
  <g id="system-index-cradle">
    <path d="M164 250 H238 L246 258 V310 L238 318 H164 L156 310 V258 Z" fill="#292752"/>
    <path d="M164 250 H238 L246 258 V310 L238 318 H164 L156 310 V258 Z" fill="url(#shell-speckle)"/>
    <path d="M164 252 H237 L244 259 M158 259 V309" fill="none" stroke="#77739A" stroke-width="1.2" stroke-linecap="round" opacity="0.72"/>
    <path d="M244 260 V309 L237 316 H165" fill="none" stroke="#14132D" stroke-width="1.5" stroke-linecap="round"/>
  </g>
  <g id="central-waist-panel">
    <path d="M116 318 H278 L295 335 V539 L278 556 H116 Z" fill="#242249"/>
    <path d="M118 320 H277 L292 335" fill="none" stroke="#4F4B79" stroke-width="1.25" stroke-linecap="round"/>
    <path d="M293 337 V538 L277 554 H118" fill="none" stroke="#14132D" stroke-width="1.5" stroke-linecap="round"/>
  </g>
  <g id="deck-edge-architecture" fill="none" stroke-linecap="round">
    <path d="M150 254 H126 V300 L144 318 H278" stroke="#14132D" stroke-width="1.5"/>
    <path d="M150 608 H126 V574 L144 556 H278" stroke="#4F4B79" stroke-width="1.35"/>
  </g>
  <g id="right-waist-instrument-bay">
    <path d="M300 342 H360 L372 354 V520 L360 532 H300 L287 520 V354 Z" fill="#191832"/>
    <path d="M301 344 H359 L369 354" fill="none" stroke="#4A476F" stroke-width="1.2"/>
    <path d="M370 357 V519 L359 530 H301" fill="none" stroke="#0D0D1F" stroke-width="1.5"/>
    <path d="M301 437 H358" fill="none" stroke="#35335A" stroke-width="1" opacity="0.6"/>
  </g>
  <g id="lower-movement-deck">
    <path d="M150 608 H296 L324 636 V816 L297 844 H150 L126 820 V632 Z" fill="#20202A"/>
    <path d="M151 610 H295 L321 637" fill="none" stroke="#4A4954" stroke-width="1.4" stroke-linecap="round"/>
    <path d="M322 640 V815 L296 841 H151" fill="none" stroke="#111119" stroke-width="2" stroke-linecap="round"/>
    <path d="M128 656 V797" fill="none" stroke="#35343F" stroke-width="1" opacity="0.72"/>
  </g>
  <g id="calibration-seam" fill="none" stroke="#A77CFF" stroke-width="1.75" stroke-linecap="round">
    <path d="M122 438 H278"/>
    <path d="M185 311 H217"/>
  </g>
</svg>
